<svg xmlns="http://www.w3.org/2000/svg" width="80" height="80" viewBox="0 0 80 80" fill="none">
<path d="M40 68.7502C40 68.7502 30.7804 67.5002 24.9234 67.5002C22.1334 67.5002 18.6153 67.7838 15.6958 68.0808C12.6785 68.3878 10 66.0464 10 63.0135V24.5115C10 22.5294 11.1695 20.7177 13.0734 20.1667C14.1149 19.8652 15.3273 19.5801 16.5566 19.4324M40 68.7502C40 68.7502 48.9131 67.5002 54.7701 67.5002C57.6188 67.5002 61.2992 67.7958 64.3284 68.0995C67.3372 68.4012 70 66.063 70 63.039V24.3672C70 22.4593 68.9118 20.7011 67.0763 20.1802C66.1891 19.9284 65.1498 19.6943 64.0307 19.5598M40 68.7502V61.2399M40 61.2399C40 61.2399 32.1856 60.0002 27.5 60.0002C25.8635 60.0002 23.9978 60.1517 22.2626 60.3489C19.1337 60.7046 16.2715 58.3114 16.2946 55.1624L16.5566 19.4324M40 61.2399C40 61.2399 47.4064 60.0002 52.092 60.0002C53.8335 60.0002 55.891 60.1894 57.7889 60.4272C60.8992 60.8169 63.7695 58.4682 63.7905 55.3336L64.0307 19.5598M40 61.2399V12.5M16.5566 19.4324V16.6985C16.5566 14.2707 18.3007 12.1918 20.7074 11.8728C23.0596 11.5611 25.9818 11.25 28.2783 11.25C32.8818 11.25 40 12.5 40 12.5M64.0307 19.5598V16.7164C64.0307 14.2807 62.2761 12.198 59.8607 11.8839C57.4351 11.5685 54.3965 11.25 52.0153 11.25C47.2977 11.25 40 12.5 40 12.5" stroke="#2563EB" stroke-width="3.75" stroke-linecap="round" stroke-linejoin="round"/>
</svg>
